<svg width="223" height="31" viewBox="0 0 223 31" fill="none" xmlns="http://www.w3.org/2000/svg">
<path d="M17.4318 8.18182C17.2614 6.74242 16.5701 5.625 15.358 4.82955C14.1458 4.03409 12.6591 3.63636 10.8977 3.63636C9.60985 3.63636 8.48296 3.8447 7.51705 4.26136C6.56061 4.67803 5.8125 5.25095 5.27273 5.98011C4.74242 6.70928 4.47727 7.53788 4.47727 8.46591C4.47727 9.24242 4.66193 9.91004 5.03125 10.4688C5.41004 11.018 5.89299 11.4773 6.48011 11.8466C7.06723 12.2064 7.68277 12.5047 8.3267 12.7415C8.97064 12.9687 9.5625 13.1534 10.1023 13.2955L13.0568 14.0909C13.8144 14.2898 14.6572 14.5644 15.5852 14.9148C16.5227 15.2652 17.4176 15.7434 18.2699 16.3494C19.1316 16.946 19.8419 17.7131 20.4006 18.6506C20.9593 19.5881 21.2386 20.7386 21.2386 22.1023C21.2386 23.6742 20.8267 25.0947 20.0028 26.3636C19.1884 27.6326 17.9953 28.6411 16.4233 29.3892C14.8608 30.1373 12.9621 30.5114 10.7273 30.5114C8.64394 30.5114 6.83996 30.1752 5.31534 29.5028C3.80019 28.8305 2.60701 27.893 1.7358 26.6903C0.874053 25.4877 0.386364 24.0909 0.272727 22.5H3.90909C4.00379 23.5985 4.37311 24.5076 5.01705 25.2273C5.67045 25.9375 6.49432 26.4678 7.48864 26.8182C8.49242 27.1591 9.57197 27.3295 10.7273 27.3295C12.072 27.3295 13.2794 27.1117 14.3494 26.6761C15.4195 26.2311 16.267 25.6155 16.892 24.8295C17.517 24.0341 17.8295 23.1061 17.8295 22.0455C17.8295 21.0795 17.5597 20.2936 17.0199 19.6875C16.4801 19.0814 15.7699 18.589 14.8892 18.2102C14.0085 17.8314 13.0568 17.5 12.0341 17.2159L8.45455 16.1932C6.18182 15.5398 4.38258 14.607 3.05682 13.3949C1.73106 12.1828 1.06818 10.5966 1.06818 8.63636C1.06818 7.00757 1.50852 5.58712 2.3892 4.375C3.27936 3.15341 4.47254 2.20644 5.96875 1.53409C7.47443 0.852272 9.1553 0.511363 11.0114 0.511363C12.8864 0.511363 14.553 0.847537 16.0114 1.51989C17.4697 2.18276 18.625 3.09185 19.4773 4.24716C20.339 5.40246 20.7936 6.71401 20.8409 8.18182H17.4318ZM27.0305 30V0.90909H30.5533V13.8636H46.0646V0.90909H49.5874V30H46.0646V16.9886H30.5533V30H27.0305ZM57.8331 30H54.1399L64.8217 0.90909H68.4581L79.1399 30H75.4467L66.7536 5.51136H66.5263L57.8331 30ZM59.1967 18.6364H74.0831V21.7614H59.1967V18.6364ZM83.6712 30V0.90909H93.5007C95.7734 0.90909 97.639 1.29735 99.0973 2.07386C100.556 2.84091 101.635 3.89678 102.336 5.24148C103.037 6.58617 103.387 8.11553 103.387 9.82955C103.387 11.5436 103.037 13.0634 102.336 14.3892C101.635 15.715 100.56 16.7566 99.1115 17.5142C97.6626 18.2623 95.8113 18.6364 93.5575 18.6364H85.603V15.4545H93.4439C94.9969 15.4545 96.2469 15.2273 97.1939 14.7727C98.1503 14.3182 98.8416 13.6742 99.2678 12.8409C99.7034 11.9981 99.9212 10.9943 99.9212 9.82955C99.9212 8.66477 99.7034 7.64678 99.2678 6.77557C98.8322 5.90436 98.1361 5.23201 97.1797 4.75852C96.2232 4.27557 94.959 4.03409 93.3871 4.03409H87.1939V30H83.6712ZM97.3643 16.9318L104.523 30H100.433L93.3871 16.9318H97.3643ZM109.257 30V0.90909H126.814V4.03409H112.78V13.8636H125.905V16.9886H112.78V26.875H127.041V30H109.257Z" fill="#FCFCFF"/>
<path d="M159.746 0.299999V30H152.006V0.299999H159.746ZM140.666 0.299999V30H132.926V0.299999H140.666ZM156.146 12.045V18.03H136.706V12.045H156.146ZM191.389 0.299999V17.895C191.389 22.095 190.264 25.245 188.014 27.345C185.794 29.415 182.494 30.45 178.114 30.45C173.764 30.45 170.464 29.415 168.214 27.345C165.964 25.245 164.839 22.095 164.839 17.895V0.299999H172.624V18.03C172.624 20.16 173.074 21.75 173.974 22.8C174.904 23.85 176.284 24.375 178.114 24.375C179.974 24.375 181.354 23.85 182.254 22.8C183.184 21.75 183.649 20.16 183.649 18.03V0.299999H191.389ZM196.472 30V0.299999H210.917C214.577 0.329998 217.277 1.035 219.017 2.415C220.757 3.765 221.627 5.73 221.627 8.31C221.627 9.99 221.132 11.445 220.142 12.675C219.152 13.875 217.637 14.64 215.597 14.97V15.015C217.877 15.315 219.572 16.11 220.682 17.4C221.822 18.66 222.392 20.19 222.392 21.99C222.392 24.54 221.492 26.52 219.692 27.93C217.892 29.31 215.192 30 211.592 30H196.472ZM203.942 24.555H210.287C211.697 24.555 212.747 24.27 213.437 23.7C214.127 23.13 214.472 22.305 214.472 21.225C214.472 20.175 214.127 19.38 213.437 18.84C212.747 18.27 211.697 17.985 210.287 17.985H203.942V24.555ZM203.942 12.45H209.567C212.327 12.45 213.707 11.37 213.707 9.21C213.707 7.05 212.327 5.97 209.567 5.97H203.942V12.45Z" fill="#01011D"/>
</svg>
