<svg width="403" height="56" viewBox="0 0 403 56" fill="none" xmlns="http://www.w3.org/2000/svg">
<path d="M31.9489 14.6364C31.6335 11.9735 30.3546 9.90625 28.1122 8.43466C25.8698 6.96307 23.1193 6.22727 19.8608 6.22727C17.4782 6.22727 15.3935 6.61269 13.6065 7.38352C11.8371 8.15435 10.4531 9.21425 9.45455 10.5632C8.47349 11.9122 7.98296 13.4451 7.98296 15.1619C7.98296 16.5985 8.32457 17.8336 9.00781 18.8672C9.70857 19.8833 10.602 20.733 11.6882 21.4162C12.7744 22.0819 13.9131 22.6338 15.1044 23.0717C16.2957 23.4922 17.3906 23.8338 18.3892 24.0966L23.8551 25.5682C25.2566 25.9361 26.8158 26.4441 28.5327 27.0923C30.267 27.7405 31.9226 28.6252 33.4993 29.7464C35.0935 30.8501 36.4074 32.2692 37.4411 34.0035C38.4747 35.7379 38.9915 37.8665 38.9915 40.3892C38.9915 43.2973 38.2294 45.9252 36.7053 48.2727C35.1986 50.6203 32.9912 52.486 30.0831 53.87C27.1925 55.254 23.6799 55.946 19.5455 55.946C15.6913 55.946 12.3539 55.3241 9.53338 54.0803C6.73035 52.8364 4.52296 51.102 2.91122 48.8771C1.317 46.6522 0.414773 44.0682 0.204546 41.125H6.93182C7.10701 43.1572 7.79025 44.839 8.98153 46.1705C10.1903 47.4844 11.7145 48.4654 13.554 49.1136C15.411 49.7443 17.4081 50.0597 19.5455 50.0597C22.0331 50.0597 24.2668 49.6567 26.2465 48.8509C28.2261 48.0275 29.794 46.8887 30.9503 45.4347C32.1065 43.9631 32.6847 42.2462 32.6847 40.2841C32.6847 38.4972 32.1854 37.0431 31.1868 35.9219C30.1882 34.8007 28.8743 33.8897 27.245 33.1889C25.6158 32.4882 23.8551 31.875 21.9631 31.3494L15.3409 29.4574C11.1364 28.2486 7.80777 26.523 5.35511 24.2805C2.90246 22.0381 1.67614 19.1037 1.67614 15.4773C1.67614 12.464 2.49077 9.83617 4.12003 7.59375C5.76681 5.33381 7.9742 3.58191 10.7422 2.33807C13.5277 1.0767 16.6373 0.446021 20.071 0.446021C23.5398 0.446021 26.6231 1.06794 29.321 2.31179C32.0189 3.53811 34.1563 5.21993 35.733 7.35724C37.3272 9.49455 38.1681 11.9209 38.2557 14.6364H31.9489ZM49.7065 55V1.18182H56.2235V25.1477H84.9196V1.18182H91.4366V55H84.9196V30.929H56.2235V55H49.7065ZM106.691 55H99.8588L119.62 1.18182H126.347L146.109 55H139.276L123.194 9.69602H122.774L106.691 55ZM109.214 33.9773H136.754V39.7585H109.214V33.9773ZM154.492 55V1.18182H172.676C176.881 1.18182 180.332 1.90009 183.03 3.33665C185.728 4.75568 187.725 6.70904 189.021 9.19673C190.318 11.6844 190.966 14.5137 190.966 17.6847C190.966 20.8556 190.318 23.6674 189.021 26.12C187.725 28.5727 185.737 30.4998 183.056 31.9013C180.376 33.2853 176.951 33.9773 172.781 33.9773H158.066V28.0909H172.571C175.444 28.0909 177.757 27.6705 179.509 26.8295C181.278 25.9886 182.557 24.7973 183.345 23.2557C184.151 21.6965 184.554 19.8395 184.554 17.6847C184.554 15.5298 184.151 13.6465 183.345 12.0348C182.539 10.4231 181.252 9.17921 179.482 8.30327C177.713 7.4098 175.374 6.96307 172.466 6.96307H161.009V55H154.492ZM179.824 30.8239L193.068 55H185.5L172.466 30.8239H179.824ZM201.826 55V1.18182H234.306V6.96307H208.343V25.1477H232.624V30.929H208.343V49.2188H234.726V55H201.826Z" fill="#313051"/>
<path d="M292.386 2.86V55H278.798V2.86H292.386ZM258.89 2.86V55H245.302V2.86H258.89ZM286.066 23.479V33.986H251.938V23.479H286.066ZM347.938 2.86V33.749C347.938 41.1223 345.963 46.6523 342.013 50.339C338.116 53.973 332.322 55.79 324.633 55.79C316.996 55.79 311.203 53.973 307.253 50.339C303.303 46.6523 301.328 41.1223 301.328 33.749V2.86H314.995V33.986C314.995 37.7253 315.785 40.5167 317.365 42.36C318.998 44.2033 321.42 45.125 324.633 45.125C327.898 45.125 330.321 44.2033 331.901 42.36C333.534 40.5167 334.35 37.7253 334.35 33.986V2.86H347.938ZM356.862 55V2.86H382.221C388.646 2.91266 393.386 4.15033 396.441 6.573C399.496 8.943 401.023 12.3927 401.023 16.922C401.023 19.8713 400.154 22.4257 398.416 24.585C396.678 26.6917 394.018 28.0347 390.437 28.614V28.693C394.44 29.2197 397.415 30.6153 399.364 32.88C401.365 35.092 402.366 37.778 402.366 40.938C402.366 45.4147 400.786 48.8907 397.626 51.366C394.466 53.7887 389.726 55 383.406 55H356.862ZM369.976 45.441H381.115C383.59 45.441 385.434 44.9407 386.645 43.94C387.856 42.9393 388.462 41.491 388.462 39.595C388.462 37.7517 387.856 36.356 386.645 35.408C385.434 34.4073 383.59 33.907 381.115 33.907H369.976V45.441ZM369.976 24.19H379.851C384.696 24.19 387.119 22.294 387.119 18.502C387.119 14.71 384.696 12.814 379.851 12.814H369.976V24.19Z" fill="#01011D"/>
</svg>
